<svg width="121" height="121" viewBox="0 0 121 121" fill="none" xmlns="http://www.w3.org/2000/svg">
<mask id="mask0_1194_4045" style="mask-type:luminance" maskUnits="userSpaceOnUse" x="70" y="69" width="40" height="40">
<path fill-rule="evenodd" clip-rule="evenodd" d="M70.7789 90.1261C71.4097 100.754 80.483 108.856 91.0448 108.221C101.607 107.586 109.657 98.4557 109.027 87.8276C108.445 78.0247 100.681 70.3716 91.1908 69.7402C87.6277 78.83 80.1571 86.0193 70.7446 89.0791C70.7467 89.4263 70.7581 89.7754 70.7789 90.1261Z" fill="white"/>
</mask>
<g mask="url(#mask0_1194_4045)">
<path d="M91.191 69.7402L91.3623 67.1934L89.4974 67.0693L88.815 68.8101L91.191 69.7402ZM70.7448 89.0791L69.9575 86.6517L68.1812 87.2291L68.1926 89.0966L70.7448 89.0791ZM90.8938 105.673C81.754 106.222 73.875 99.2089 73.3269 89.973L68.2313 90.2793C68.9447 102.3 79.2125 111.489 91.1962 110.769L90.8938 105.673ZM106.479 87.9807C107.027 97.2166 100.034 105.124 90.8938 105.673L91.1962 110.769C103.18 110.048 112.288 99.6948 111.575 87.6745L106.479 87.9807ZM91.0196 72.287C99.2313 72.8334 105.973 79.4647 106.479 87.9807L111.575 87.6745C110.917 76.5847 102.13 67.9098 91.3623 67.1934L91.0196 72.287ZM88.815 68.8101C85.5251 77.2028 78.6285 83.8329 69.9575 86.6517L71.5321 91.5065C81.6862 88.2056 89.7307 80.4572 93.5671 70.6703L88.815 68.8101ZM73.3269 89.973C73.3087 89.6675 73.2988 89.3636 73.297 89.0615L68.1926 89.0966C68.195 89.489 68.2078 89.8833 68.2313 90.2793L73.3269 89.973Z" fill="black"/>
</g>
<path d="M64.21 90.8724C46.8151 91.9178 31.8579 78.5741 30.8179 61.0506C29.7779 43.527 43.0504 28.4867 60.4454 27.4413C77.8403 26.3959 92.7974 39.7397 93.8375 57.2633C94.8775 74.7868 81.6049 89.827 64.21 90.8724Z" stroke="black" stroke-width="2.55235"/>
<mask id="mask1_1194_4045" style="mask-type:luminance" maskUnits="userSpaceOnUse" x="60" y="60" width="26" height="23">
<path d="M85.0601 60C85.0601 63.1086 84.4063 66.182 83.1419 69.0182C81.8774 71.8545 80.0308 74.3893 77.7235 76.4563C75.4161 78.5232 72.7002 80.0754 69.7542 81.0109C66.8082 81.9464 63.6988 82.2439 60.6304 81.884L60.9403 79.2087C63.6336 79.5246 66.3629 79.2634 68.9487 78.4423C71.5345 77.6212 73.9184 76.2588 75.9437 74.4445C77.969 72.6302 79.5899 70.4053 80.6998 67.9157C81.8096 65.4262 82.3834 62.7285 82.3834 60H85.0601Z" fill="white"/>
</mask>
<g mask="url(#mask1_1194_4045)">
<path d="M85.0601 60C85.0601 63.1086 84.4063 66.182 83.1419 69.0182C81.8774 71.8545 80.0308 74.3893 77.7235 76.4563C75.4161 78.5232 72.7002 80.0754 69.7542 81.0109C66.8082 81.9464 63.6988 82.2439 60.6304 81.884L60.9403 79.2087C63.6336 79.5246 66.3629 79.2634 68.9487 78.4423C71.5345 77.6212 73.9184 76.2588 75.9437 74.4445C77.969 72.6302 79.5899 70.4053 80.6998 67.9157C81.8096 65.4262 82.3834 62.7285 82.3834 60H85.0601Z" stroke="black" stroke-width="5.1047"/>
</g>
<mask id="mask2_1194_4045" style="mask-type:luminance" maskUnits="userSpaceOnUse" x="87" y="87" width="12" height="12">
<path d="M98.7447 87.5405C98.7447 88.9872 98.4616 90.4197 97.9114 91.7562C97.3612 93.0927 96.5549 94.3071 95.5383 95.3301C94.5218 96.353 93.3149 97.1645 91.9867 97.7181C90.6585 98.2717 89.235 98.5566 87.7974 98.5566V96.3411C88.9459 96.3411 90.0831 96.1135 91.1442 95.6712C92.2053 95.229 93.1694 94.5807 93.9815 93.7635C94.7936 92.9463 95.4378 91.9761 95.8773 90.9084C96.3168 89.8406 96.5431 88.6962 96.5431 87.5405H98.7447Z" fill="white"/>
</mask>
<g mask="url(#mask2_1194_4045)">
<path d="M98.7447 87.5405C98.7447 88.9872 98.4616 90.4197 97.9114 91.7562C97.3612 93.0927 96.5549 94.3071 95.5383 95.3301C94.5218 96.353 93.3149 97.1645 91.9867 97.7181C90.6585 98.2717 89.235 98.5566 87.7974 98.5566V96.3411C88.9459 96.3411 90.0831 96.1135 91.1442 95.6712C92.2053 95.229 93.1694 94.5807 93.9815 93.7635C94.7936 92.9463 95.4378 91.9761 95.8773 90.9084C96.3168 89.8406 96.5431 88.6962 96.5431 87.5405H98.7447Z" stroke="black" stroke-width="5.1047"/>
</g>
<mask id="mask3_1194_4045" style="mask-type:luminance" maskUnits="userSpaceOnUse" x="24" y="24" width="10" height="9">
<path d="M33.0596 24.1978C33.0596 25.2828 32.8472 26.3572 32.4346 27.3596C32.022 28.362 31.4172 29.2728 30.6548 30.04C29.8924 30.8072 28.9873 31.4158 27.9911 31.831C26.995 32.2462 25.9273 32.4599 24.8491 32.4599V30.2271C25.6359 30.2271 26.4151 30.0712 27.142 29.7682C27.869 29.4652 28.5295 29.0211 29.0858 28.4612C29.6422 27.9013 30.0836 27.2367 30.3847 26.5051C30.6858 25.7736 30.8408 24.9896 30.8408 24.1978H33.0596Z" fill="white"/>
</mask>
<g mask="url(#mask3_1194_4045)">
<path d="M33.0596 24.1978C33.0596 25.2828 32.8472 26.3572 32.4346 27.3596C32.022 28.362 31.4172 29.2728 30.6548 30.04C29.8924 30.8072 28.9873 31.4158 27.9911 31.831C26.995 32.2462 25.9273 32.4599 24.8491 32.4599V30.2271C25.6359 30.2271 26.4151 30.0712 27.142 29.7682C27.869 29.4652 28.5295 29.0211 29.0858 28.4612C29.6422 27.9013 30.0836 27.2367 30.3847 26.5051C30.6858 25.7736 30.8408 24.9896 30.8408 24.1978H33.0596Z" stroke="black" stroke-width="5.1047"/>
</g>
<path d="M39.9948 25.5751C39.9948 33.2434 33.8193 39.4461 26.2184 39.4461C18.6173 39.4461 12.4419 33.2434 12.4419 25.5751C12.4419 17.9068 18.6173 11.7041 26.2184 11.7041C33.8193 11.7041 39.9948 17.9068 39.9948 25.5751Z" stroke="black" stroke-width="2.55235"/>
<path d="M48.2051 98.5561C48.2051 100.901 46.3183 102.788 44.0076 102.788C41.6969 102.788 39.8101 100.901 39.8101 98.5561C39.8101 96.2114 41.6969 94.3242 44.0076 94.3242C46.3183 94.3242 48.2051 96.2114 48.2051 98.5561Z" stroke="black" stroke-width="2.55235"/>
<path d="M67.3633 101.31C67.3633 105.176 64.2512 108.296 60.429 108.296C56.6068 108.296 53.4946 105.176 53.4946 101.31C53.4946 97.4444 56.6068 94.3242 60.429 94.3242C64.2512 94.3242 67.3633 97.4444 67.3633 101.31Z" stroke="black" stroke-width="2.55235"/>
<path d="M31.7843 93.0485C31.7843 98.4353 27.4468 102.788 22.1131 102.788C16.7793 102.788 12.4419 98.4353 12.4419 93.0485C12.4419 87.6618 16.7793 83.3086 22.1131 83.3086C27.4468 83.3086 31.7843 87.6618 31.7843 93.0485Z" stroke="black" stroke-width="2.55235"/>
<path d="M105.678 24.1981C105.678 31.1058 100.116 36.692 93.2703 36.692C86.4251 36.692 80.8623 31.1058 80.8623 24.1981C80.8623 17.2903 86.4251 11.7041 93.2703 11.7041C100.116 11.7041 105.678 17.2903 105.678 24.1981Z" stroke="black" stroke-width="2.55235"/>
<path d="M108.416 58.6226C108.416 61.7278 105.917 64.2315 102.85 64.2315C99.7837 64.2315 97.2842 61.7278 97.2842 58.6226C97.2842 55.5173 99.7837 53.0137 102.85 53.0137C105.917 53.0137 108.416 55.5173 108.416 58.6226Z" stroke="black" stroke-width="2.55235"/>
<path d="M26.3111 66.8853C26.3111 69.9905 23.8116 72.4942 20.7451 72.4942C17.6787 72.4942 15.1792 69.9905 15.1792 66.8853C15.1792 63.78 17.6787 61.2764 20.7451 61.2764C23.8116 61.2764 26.3111 63.78 26.3111 66.8853Z" stroke="black" stroke-width="2.55235"/>
<path d="M59.1529 17.313C59.1529 20.4183 56.6534 22.9219 53.5869 22.9219C50.5205 22.9219 48.021 20.4183 48.021 17.313C48.021 14.2077 50.5205 11.7041 53.5869 11.7041C56.6534 11.7041 59.1529 14.2077 59.1529 17.313Z" stroke="black" stroke-width="2.55235"/>
</svg>
