<svg width="120" height="120" viewBox="0 0 120 120" fill="none" xmlns="http://www.w3.org/2000/svg">
<g clip-path="url(#clip0_3345_4547)">
<mask id="mask0_3345_4547" style="mask-type:luminance" maskUnits="userSpaceOnUse" x="21" y="12" width="79" height="95">
<path fill-rule="evenodd" clip-rule="evenodd" d="M48.252 13.8506C48.7521 12.8403 50.0128 12.4788 50.9724 13.0706L58.4753 17.6979C59.1118 18.0904 59.9188 18.0764 60.5412 17.6618L67.8781 12.7755C68.8164 12.1505 70.0889 12.4678 70.6241 13.4601L74.8081 21.2189C75.1631 21.8772 75.869 22.2685 76.6153 22.2207L85.4124 21.6574C86.5375 21.5854 87.4809 22.4964 87.4481 23.6233L87.1922 32.4347C87.1705 33.1823 87.5862 33.874 88.2564 34.2058L96.1565 38.1166C97.1669 38.6167 97.5284 39.8774 96.9366 40.837L92.3093 48.3399C91.9167 48.9764 91.9308 49.7834 92.3454 50.4058L97.2317 57.7427C97.8566 58.681 97.5394 59.9535 96.547 60.4887L88.7883 64.6727C88.13 65.0277 87.7387 65.7336 87.7865 66.4799L88.3497 75.277C88.3774 75.709 88.2601 76.1142 88.0414 76.4476L98.2751 94.173L98.4998 94.5622L99.4844 96.2675L99.6439 96.5438C99.7509 96.7291 99.596 96.9559 99.3844 96.9237L99.069 96.8757L97.1224 96.5792L96.6781 96.5115L87.6098 95.1304C87.4918 95.1124 87.3771 95.1786 87.3337 95.2898L83.9956 103.834L83.8321 104.252L83.1155 106.086L82.9994 106.384C82.9215 106.583 82.6476 106.604 82.5406 106.418L82.3811 106.142L81.3966 104.437L81.1719 104.048L71.2057 86.7856C70.6092 87.1655 69.8205 87.2023 69.1702 86.8012L61.6673 82.1739C61.0307 81.7813 60.2238 81.7954 59.6013 82.21L52.2645 87.0963C51.4599 87.6322 50.4096 87.4753 49.7891 86.794L39.8281 104.047L39.6034 104.436L38.6189 106.142L38.4594 106.418C38.3523 106.603 38.0785 106.582 38.0006 106.383L37.8845 106.086L37.1679 104.252L37.0044 103.833L33.6663 95.2893C33.6229 95.1781 33.5082 95.1118 33.3902 95.1298L24.3219 96.5109L23.8776 96.5786L21.931 96.8751L21.6156 96.9231C21.404 96.9554 21.2491 96.7285 21.3561 96.5432L21.5156 96.2669L22.5002 94.5616L22.7249 94.1724L32.7572 76.7959C32.7111 76.622 32.6889 76.4383 32.6944 76.2484L32.9503 67.4371C32.972 66.6895 32.5564 65.9977 31.8861 65.666L23.986 61.7552C22.9757 61.2551 22.6142 59.9944 23.206 59.0348L27.8333 51.5319C28.2258 50.8953 28.2118 50.0884 27.7972 49.4659L22.9109 42.1291C22.2859 41.1908 22.6032 39.9182 23.5955 39.3831L31.3543 35.1991C32.0126 34.8441 32.4039 34.1382 32.3561 33.3919L31.7928 24.5948C31.7208 23.4697 32.6318 22.5263 33.7587 22.559L42.5701 22.8149C43.3177 22.8366 44.0094 22.421 44.3412 21.7507L48.252 13.8506ZM72.7312 84.3231L82.3613 101.003L84.9563 94.361C85.4342 93.1379 86.696 92.4094 87.9941 92.6071L95.0438 93.6808L85.5802 77.2894L77.5725 77.0568C76.8249 77.0351 76.1331 77.4508 75.8013 78.121L72.7312 84.3231ZM43.5273 77.6511L34.8914 78.204L25.9562 93.6803L33.0059 92.6066C34.304 92.4088 35.5658 93.1374 36.0437 94.3604L38.6387 101.003L48.3325 84.2123L45.3344 78.6529C44.9795 77.9946 44.2736 77.6033 43.5273 77.6511Z" fill="white"/>
</mask>
<g mask="url(#mask0_3345_4547)">
<path d="M88.0416 76.4477L85.9075 75.0476L85.045 76.3622L85.8312 77.7239L88.0416 76.4477ZM71.2059 86.7857L73.4163 85.5095L72.0833 83.2007L69.8347 84.6329L71.2059 86.7857ZM49.7893 86.7941L51.6764 85.0755L49.325 82.4936L47.5789 85.5179L49.7893 86.7941ZM32.7574 76.796L34.9678 78.0722L35.4943 77.1601L35.2246 76.1422L32.7574 76.796ZM72.7314 84.3232L70.4439 83.1909L69.8376 84.4158L70.521 85.5994L72.7314 84.3232ZM82.3615 101.003L80.1511 102.279L82.8064 106.878L84.7389 101.932L82.3615 101.003ZM95.044 93.6809L94.6597 96.2042L99.9096 97.0038L97.2544 92.4048L95.044 93.6809ZM85.5804 77.2895L87.7908 76.0133L87.0785 74.7796L85.6545 74.7382L85.5804 77.2895ZM34.8916 78.2041L34.7285 75.657L33.3646 75.7443L32.6812 76.9279L34.8916 78.2041ZM25.9564 93.6804L23.746 92.4042L21.0908 97.0032L26.3407 96.2036L25.9564 93.6804ZM38.6389 101.003L36.2615 101.931L38.194 106.878L40.8493 102.279L38.6389 101.003ZM48.3327 84.2124L50.5431 85.4886L51.2554 84.2548L50.5792 83.0009L48.3327 84.2124ZM52.3124 10.8983C50.0733 9.51738 47.1318 10.3609 45.9647 12.7184L50.5396 14.9831C50.3729 15.3199 49.9526 15.4404 49.6328 15.2431L52.3124 10.8983ZM59.8153 15.5255L52.3124 10.8983L49.6328 15.2431L57.1357 19.8704L59.8153 15.5255ZM59.1266 15.5376C59.3341 15.3994 59.6031 15.3947 59.8153 15.5255L57.1357 19.8704C58.621 20.7864 60.5038 20.7536 61.9562 19.7862L59.1266 15.5376ZM66.4635 10.6513L59.1266 15.5376L61.9562 19.7862L69.2931 14.8999L66.4635 10.6513ZM72.8708 12.2488C71.6221 9.93337 68.6529 9.19307 66.4635 10.6513L69.2931 14.8999C68.9803 15.1083 68.5561 15.0025 68.3777 14.6717L72.8708 12.2488ZM77.0548 20.0076L72.8708 12.2488L68.3777 14.6717L72.5618 22.4305L77.0548 20.0076ZM76.4524 19.6736C76.7012 19.6577 76.9365 19.7881 77.0548 20.0076L72.5618 22.4305C73.3901 23.9665 75.0371 24.8794 76.7786 24.7679L76.4524 19.6736ZM85.2495 19.1104L76.4524 19.6736L76.7786 24.7679L85.5756 24.2047L85.2495 19.1104ZM89.9996 23.6975C90.076 21.068 87.8747 18.9423 85.2495 19.1104L85.5756 24.2047C85.2006 24.2287 84.8861 23.925 84.8971 23.5493L89.9996 23.6975ZM89.7437 32.5089L89.9996 23.6975L84.8971 23.5493L84.6412 32.3607L89.7437 32.5089ZM89.389 31.9185C89.6124 32.0291 89.7509 32.2597 89.7437 32.5089L84.6412 32.3607C84.5905 34.105 85.5604 35.7191 87.1243 36.4933L89.389 31.9185ZM97.2891 35.8292L89.389 31.9185L87.1243 36.4933L95.0244 40.4041L97.2891 35.8292ZM99.1092 42.1769C100.49 39.9378 99.6466 36.9963 97.2891 35.8292L95.0244 40.4041C94.6876 40.2374 94.5671 39.8171 94.7644 39.4973L99.1092 42.1769ZM94.4819 49.6798L99.1092 42.1769L94.7644 39.4973L90.1371 47.0002L94.4819 49.6798ZM94.4699 48.9911C94.6081 49.1986 94.6128 49.4676 94.4819 49.6798L90.1371 47.0002C89.2211 48.4855 89.2539 50.3683 90.2212 51.8207L94.4699 48.9911ZM99.3562 56.328L94.4699 48.9911L90.2212 51.8207L95.1075 59.1576L99.3562 56.328ZM97.7587 62.7353C100.074 61.4866 100.814 58.5174 99.3562 56.328L95.1075 59.1576C94.8992 58.8448 95.005 58.4206 95.3358 58.2422L97.7587 62.7353ZM89.9999 66.9193L97.7587 62.7353L95.3358 58.2422L87.577 62.4263L89.9999 66.9193ZM90.3338 66.3169C90.3498 66.5657 90.2193 66.801 89.9999 66.9193L87.577 62.4263C86.041 63.2546 85.1281 64.9016 85.2396 66.6431L90.3338 66.3169ZM90.8971 75.114L90.3338 66.3169L85.2396 66.6431L85.8028 75.4401L90.8971 75.114ZM90.1756 77.8478C90.687 77.0683 90.9613 76.1174 90.8971 75.114L85.8028 75.4401C85.7939 75.3007 85.8336 75.1602 85.9075 75.0476L90.1756 77.8478ZM100.486 92.8969L90.252 75.1715L85.8312 77.7239L96.0649 95.4493L100.486 92.8969ZM100.711 93.2861L100.486 92.8969L96.0649 95.4493L96.2896 95.8384L100.711 93.2861ZM101.695 94.9914L100.711 93.2861L96.2896 95.8384L97.2742 97.5437L101.695 94.9914ZM101.855 95.2677L101.695 94.9914L97.2742 97.5437L97.4337 97.8201L101.855 95.2677ZM99.0003 99.4471C101.328 99.8015 103.032 97.3065 101.855 95.2677L97.4337 97.8201C96.4706 96.1519 97.8648 94.1106 99.7689 94.4006L99.0003 99.4471ZM98.6849 99.399L99.0003 99.4471L99.7689 94.4006L99.4536 94.3525L98.6849 99.399ZM96.7383 99.1025L98.6849 99.399L99.4536 94.3525L97.5069 94.056L96.7383 99.1025ZM96.294 99.0349L96.7383 99.1025L97.5069 94.056L97.0626 93.9884L96.294 99.0349ZM87.2257 97.6537L96.294 99.0349L97.0626 93.9884L87.9943 92.6072L87.2257 97.6537ZM89.7112 96.2188C89.3202 97.2194 88.2879 97.8155 87.2257 97.6537L87.9943 92.6072C86.6961 92.4095 85.4343 93.1381 84.9565 94.3611L89.7112 96.2188ZM86.3732 104.763L89.7112 96.2188L84.9565 94.3611L81.6185 102.905L86.3732 104.763ZM86.2096 105.181L86.3732 104.763L81.6185 102.905L81.4549 103.324L86.2096 105.181ZM85.4931 107.015L86.2096 105.181L81.4549 103.324L80.7384 105.158L85.4931 107.015ZM85.377 107.313L85.4931 107.015L80.7384 105.158L80.6223 105.455L85.377 107.313ZM80.3304 107.695C81.5075 109.733 84.5203 109.505 85.377 107.313L80.6223 105.455C81.3232 103.661 83.7882 103.474 84.7512 105.142L80.3304 107.695ZM80.1709 107.418L80.3304 107.695L84.7512 105.142L84.5917 104.866L80.1709 107.418ZM79.1863 105.713L80.1709 107.418L84.5917 104.866L83.6072 103.161L79.1863 105.713ZM78.9616 105.324L79.1863 105.713L83.6072 103.161L83.3825 102.772L78.9616 105.324ZM68.9955 88.0619L78.9616 105.324L83.3825 102.772L73.4163 85.5095L68.9955 88.0619ZM67.8306 88.9737C69.352 89.912 71.194 89.8194 72.577 88.9385L69.8347 84.6329C70.0248 84.5118 70.2895 84.4928 70.5102 84.6289L67.8306 88.9737ZM60.3277 84.3464L67.8306 88.9737L70.5102 84.6289L63.0073 80.0016L60.3277 84.3464ZM61.0163 84.3344C60.8088 84.4726 60.5399 84.4773 60.3277 84.3464L63.0073 80.0016C61.522 79.0856 59.6392 79.1184 58.1867 80.0857L61.0163 84.3344ZM53.6795 89.2207L61.0163 84.3344L58.1867 80.0857L50.8499 84.972L53.6795 89.2207ZM47.9023 88.5127C49.35 90.1023 51.7983 90.4736 53.6795 89.2207L50.8499 84.972C51.1219 84.7909 51.4696 84.8484 51.6764 85.0755L47.9023 88.5127ZM42.0387 105.323L51.9997 88.0703L47.5789 85.5179L37.6179 102.771L42.0387 105.323ZM41.814 105.713L42.0387 105.323L37.6179 102.771L37.3932 103.16L41.814 105.713ZM40.8295 107.418L41.814 105.713L37.3932 103.16L36.4087 104.865L40.8295 107.418ZM40.6699 107.694L40.8295 107.418L36.4087 104.865L36.2492 105.142L40.6699 107.694ZM35.6234 107.312C36.4801 109.505 39.4929 109.733 40.6699 107.694L36.2492 105.142C37.2122 103.474 39.6772 103.66 40.3781 105.454L35.6234 107.312ZM35.5073 107.015L35.6234 107.312L40.3781 105.454L40.262 105.157L35.5073 107.015ZM34.7908 105.181L35.5073 107.015L40.262 105.157L39.5455 103.323L34.7908 105.181ZM34.6272 104.762L34.7908 105.181L39.5455 103.323L39.3819 102.905L34.6272 104.762ZM31.2892 96.2182L34.6272 104.762L39.3819 102.905L36.0439 94.3606L31.2892 96.2182ZM33.7747 97.6532C32.7125 97.8149 31.6801 97.2188 31.2892 96.2182L36.0439 94.3606C35.566 93.1376 34.3044 92.4089 33.0061 92.6067L33.7747 97.6532ZM24.7064 99.0343L33.7747 97.6532L33.0061 92.6067L23.9378 93.9878L24.7064 99.0343ZM24.2621 99.102L24.7064 99.0343L23.9378 93.9878L23.4935 94.0555L24.2621 99.102ZM22.3155 99.3984L24.2621 99.102L23.4935 94.0555L21.5469 94.3519L22.3155 99.3984ZM22 99.4465L22.3155 99.3984L21.5469 94.3519L21.2314 94.4L22 99.4465ZM19.1459 95.2671C17.9688 97.3059 19.6728 99.8009 22 99.4465L21.2314 94.4C23.1355 94.11 24.5298 96.1513 23.5667 97.8195L19.1459 95.2671ZM19.3054 94.9908L19.1459 95.2671L23.5667 97.8195L23.7262 97.5432L19.3054 94.9908ZM20.29 93.2855L19.3054 94.9908L23.7262 97.5432L24.7108 95.8379L20.29 93.2855ZM20.5147 92.8963L20.29 93.2855L24.7108 95.8379L24.9355 95.4487L20.5147 92.8963ZM30.547 75.5198L20.5147 92.8963L24.9355 95.4487L34.9678 78.0722L30.547 75.5198ZM30.1434 76.1744C30.1307 76.6119 30.1818 77.0407 30.2902 77.4498L35.2246 76.1422C35.2408 76.2034 35.2476 76.2648 35.2459 76.3226L30.1434 76.1744ZM30.3993 67.3631L30.1434 76.1744L35.2459 76.3226L35.5018 67.5113L30.3993 67.3631ZM30.754 67.9535C30.5306 67.8429 30.392 67.6123 30.3993 67.3631L35.5018 67.5113C35.5525 65.7669 34.5826 64.1528 33.0187 63.3786L30.754 67.9535ZM22.8539 64.0427L30.754 67.9535L33.0187 63.3786L25.1186 59.4679L22.8539 64.0427ZM21.0338 57.6951C19.6529 59.9341 20.4964 62.8757 22.8539 64.0427L25.1186 59.4679C25.4554 59.6346 25.5759 60.0548 25.3786 60.3747L21.0338 57.6951ZM25.661 50.1922L21.0338 57.6951L25.3786 60.3747L30.0059 52.8718L25.661 50.1922ZM25.6731 50.8808C25.5349 50.6734 25.5302 50.4044 25.661 50.1922L30.0059 52.8718C30.9219 51.3865 30.8891 49.5037 29.9217 48.0512L25.6731 50.8808ZM20.7868 43.544L25.6731 50.8808L29.9217 48.0512L25.0354 40.7144L20.7868 43.544ZM22.3843 37.1367C20.0689 38.3853 19.3286 41.3545 20.7868 43.544L25.0354 40.7144C25.2437 41.0272 25.138 41.4514 24.8072 41.6297L22.3843 37.1367ZM30.1431 32.9526L22.3843 37.1367L24.8072 41.6297L32.566 37.4457L30.1431 32.9526ZM29.8091 33.555C29.7932 33.3062 29.9236 33.071 30.1431 32.9526L32.566 37.4457C34.102 36.6174 35.0149 34.9704 34.9034 33.2289L29.8091 33.555ZM29.2459 24.758L29.8091 33.555L34.9034 33.2289L34.3402 24.4318L29.2459 24.758ZM33.833 20.0079C31.2035 19.9315 29.0778 22.1328 29.2459 24.758L34.3402 24.4318C34.3642 24.8069 34.0605 25.1213 33.6849 25.1104L33.833 20.0079ZM42.6444 20.2638L33.833 20.0079L33.6849 25.1104L42.4962 25.3663L42.6444 20.2638ZM42.054 20.6185C42.1646 20.3951 42.3952 20.2565 42.6444 20.2638L42.4962 25.3663C44.2405 25.417 45.8546 24.4471 46.6288 22.8832L42.054 20.6185ZM45.9647 12.7184L42.054 20.6185L46.6288 22.8832L50.5396 14.9831L45.9647 12.7184ZM70.521 85.5994L80.1511 102.279L84.5719 99.727L74.9418 83.0471L70.521 85.5994ZM84.7389 101.932L87.3339 95.2899L82.5792 93.4323L79.9842 100.074L84.7389 101.932ZM87.3339 95.2899C87.3773 95.1787 87.492 95.1125 87.61 95.1305L88.3786 90.084C85.9003 89.7065 83.4914 91.0973 82.5792 93.4323L87.3339 95.2899ZM87.61 95.1305L94.6597 96.2042L95.4283 91.1577L88.3786 90.084L87.61 95.1305ZM97.2544 92.4048L87.7908 76.0133L83.37 78.5657L92.8336 94.9571L97.2544 92.4048ZM77.4986 79.6082L85.5063 79.8408L85.6545 74.7382L77.6468 74.5057L77.4986 79.6082ZM78.089 79.2535C77.9784 79.4769 77.7478 79.6154 77.4986 79.6082L77.6468 74.5057C75.9024 74.455 74.2883 75.4249 73.5141 76.9888L78.089 79.2535ZM75.0188 85.4556L78.089 79.2535L73.5141 76.9888L70.4439 83.1909L75.0188 85.4556ZM35.0547 80.7513L43.6905 80.1983L43.3644 75.1041L34.7285 75.657L35.0547 80.7513ZM28.1668 94.9565L37.102 79.4803L32.6812 76.9279L23.746 92.4042L28.1668 94.9565ZM32.6218 90.0834L25.5721 91.1571L26.3407 96.2036L33.3904 95.1299L32.6218 90.0834ZM38.4212 93.4317C37.509 91.0967 35.1001 89.7059 32.6218 90.0834L33.3904 95.1299C33.5084 95.1119 33.6231 95.1782 33.6665 95.2894L38.4212 93.4317ZM41.0162 100.074L38.4212 93.4317L33.6665 95.2894L36.2615 101.931L41.0162 100.074ZM46.1223 82.9362L36.4285 99.7264L40.8493 102.279L50.5431 85.4886L46.1223 82.9362ZM43.0881 79.8644L46.0862 85.4239L50.5792 83.0009L47.5812 77.4415L43.0881 79.8644ZM43.6905 80.1983C43.4417 80.2143 43.2065 80.0838 43.0881 79.8644L47.5812 77.4415C46.7529 75.9055 45.1059 74.9926 43.3644 75.1041L43.6905 80.1983Z" fill="black"/>
</g>
<path d="M60.5885 73.8641C73.5177 73.8641 83.9988 63.3829 83.9988 50.4538C83.9988 37.5246 73.5177 27.0435 60.5885 27.0435C47.6594 27.0435 37.1782 37.5246 37.1782 50.4538C37.1782 63.3829 47.6594 73.8641 60.5885 73.8641Z" stroke="black" stroke-width="2.55235"/>
<path d="M60.528 35.8278C60.5471 35.769 60.6303 35.769 60.6494 35.8278L63.8999 45.8317C63.9084 45.858 63.9329 45.8758 63.9606 45.8758H74.4793C74.5411 45.8758 74.5668 45.9549 74.5168 45.9912L66.007 52.1739C65.9846 52.1902 65.9752 52.219 65.9838 52.2453L69.2342 62.2492C69.2533 62.308 69.1861 62.3568 69.136 62.3205L60.6262 56.1378C60.6039 56.1215 60.5736 56.1215 60.5512 56.1378L52.0414 62.3205C51.9914 62.3568 51.9241 62.308 51.9432 62.2492L55.1937 52.2453C55.2022 52.219 55.1929 52.1902 55.1705 52.1739L46.6607 45.9912C46.6107 45.9549 46.6364 45.8758 46.6982 45.8758H57.2169C57.2445 45.8758 57.269 45.858 57.2776 45.8317L60.528 35.8278Z" stroke="black" stroke-width="2.55235"/>
</g>
<defs>
<clipPath id="clip0_3345_4547">
<rect width="79" height="95" fill="white" transform="translate(21 12)"/>
</clipPath>
</defs>
</svg>
