<svg width="121" height="121" viewBox="0 0 121 121" fill="none" xmlns="http://www.w3.org/2000/svg">
<mask id="mask0_1194_4014" style="mask-type:luminance" maskUnits="userSpaceOnUse" x="6" y="13" width="32" height="56">
<path fill-rule="evenodd" clip-rule="evenodd" d="M25.3561 28.8637L37.6872 64.845C38.8196 68.1492 34.0521 69.8112 31.7785 66.9047L10.1762 39.289C9.30693 38.1777 9.27417 36.7776 10.0949 35.811L13.3686 31.9555C13.6098 31.6714 13.5642 31.2483 13.2692 31.033L8.32299 27.4234C6.75457 26.2788 6.43439 24.3068 7.62009 23.0944L16.5271 13.987C18.3027 12.1714 21.9205 13.3072 22.4836 15.857L25.3561 28.8637Z" fill="white"/>
</mask>
<g mask="url(#mask0_1194_4014)">
<path d="M25.3561 28.8639L22.8592 29.4628L22.8896 29.6007L22.9353 29.7341L25.3561 28.8639ZM22.9353 29.7341L35.2665 65.7154L40.1079 63.975L27.7768 27.9936L22.9353 29.7341ZM35.2665 65.7154C35.3406 65.9317 35.2647 65.8908 35.338 65.7604C35.3828 65.6807 35.3898 65.7386 35.213 65.8002C34.8442 65.9288 34.2416 65.8666 33.8069 65.3109L29.7502 68.499C31.589 70.8497 34.507 71.4097 36.8072 70.6079C37.965 70.2043 39.0936 69.4088 39.7849 68.179C40.5046 66.8985 40.6 65.4108 40.1079 63.975L35.2665 65.7154ZM33.8069 65.3109L12.2047 37.6951L8.14796 40.8832L29.7502 68.499L33.8069 65.3109ZM12.2047 37.6951C12.0698 37.5227 12.0579 37.4043 12.0573 37.3817C12.0571 37.37 12.0589 37.3756 12.0529 37.393C12.0464 37.4116 12.0368 37.4265 12.031 37.4333L8.1589 34.1891C6.40333 36.2567 6.68488 39.0129 8.14796 40.8832L12.2047 37.6951ZM12.031 37.4333L15.3046 33.5778L11.4326 30.3335L8.1589 34.1891L12.031 37.4333ZM14.8076 28.9654L9.86151 25.3558L6.78463 29.4914L11.7308 33.101L14.8076 28.9654ZM9.86151 25.3558C9.55468 25.1319 9.47566 24.9066 9.46235 24.8247C9.45595 24.7853 9.46346 24.7816 9.45645 24.8049C9.45318 24.8158 9.44799 24.8279 9.4413 24.8393C9.43451 24.8507 9.42968 24.8555 9.43148 24.8536L5.80887 21.3357C3.21582 23.9871 4.36049 27.7223 6.78463 29.4914L9.86151 25.3558ZM9.43148 24.8536L18.3384 15.7462L14.7158 12.2282L5.80887 21.3357L9.43148 24.8536ZM18.3384 15.7462C18.3494 15.7349 18.583 15.5412 19.1449 15.7176C19.695 15.8903 19.9394 16.242 19.9867 16.4561L24.9805 15.2583C24.4647 12.9226 22.6186 11.4315 20.7752 10.8527C18.9434 10.2777 16.4804 10.4239 14.7158 12.2282L18.3384 15.7462ZM19.9867 16.4561L22.8592 29.4628L27.853 28.265L24.9805 15.2583L19.9867 16.4561ZM15.3046 33.5778C16.5106 32.1574 16.2827 30.0419 14.8076 28.9654L11.7308 33.101C10.8457 32.4551 10.7089 31.1858 11.4326 30.3335L15.3046 33.5778Z" fill="black"/>
</g>
<mask id="mask1_1194_4014" style="mask-type:luminance" maskUnits="userSpaceOnUse" x="47" y="13" width="32" height="56">
<path fill-rule="evenodd" clip-rule="evenodd" d="M60.1015 28.8637L47.7704 64.845C46.638 68.1492 51.4055 69.8112 53.6791 66.9047L75.2813 39.289C76.1506 38.1777 76.1834 36.7776 75.3627 35.811L72.0891 31.9555C71.8478 31.6714 71.8934 31.2483 72.1885 31.033L77.1346 27.4234C78.703 26.2788 79.0232 24.3068 77.8375 23.0944L68.9305 13.987C67.1549 12.1714 63.5372 13.3072 62.974 15.857L60.1015 28.8637Z" fill="white"/>
</mask>
<g mask="url(#mask1_1194_4014)">
<path d="M60.1018 28.8639L62.5986 29.4628L62.5682 29.6007L62.5225 29.7341L60.1018 28.8639ZM62.5225 29.7341L50.1913 65.7154L45.3499 63.975L57.6811 27.9936L62.5225 29.7341ZM50.1913 65.7154C50.1172 65.9317 50.1931 65.8908 50.1198 65.7604C50.075 65.6807 50.068 65.7386 50.2448 65.8002C50.6136 65.9288 51.2162 65.8666 51.6509 65.3109L55.7077 68.499C53.8689 70.8497 50.951 71.4097 48.6508 70.6079C47.4929 70.2043 46.3642 69.4088 45.6729 68.179C44.9532 66.8985 44.8578 65.4108 45.3499 63.975L50.1913 65.7154ZM51.6509 65.3109L73.2533 37.6951L77.31 40.8832L55.7077 68.499L51.6509 65.3109ZM73.2533 37.6951C73.3881 37.5227 73.4001 37.4043 73.4006 37.3817C73.4009 37.37 73.3989 37.3756 73.405 37.393C73.4114 37.4116 73.4211 37.4265 73.4269 37.4333L77.299 34.1891C79.0546 36.2567 78.7731 39.0129 77.31 40.8832L73.2533 37.6951ZM73.4269 37.4333L70.1533 33.5778L74.0253 30.3335L77.299 34.1891L73.4269 37.4333ZM70.6502 28.9654L75.5964 25.3558L78.6732 29.4914L73.7271 33.101L70.6502 28.9654ZM75.5964 25.3558C75.9033 25.1319 75.9822 24.9066 75.9955 24.8247C76.0019 24.7853 75.9944 24.7816 76.0014 24.8049C76.0047 24.8158 76.0099 24.8279 76.0166 24.8393C76.0233 24.8507 76.0283 24.8555 76.0265 24.8536L79.649 21.3357C82.242 23.9871 81.0975 27.7223 78.6732 29.4914L75.5964 25.3558ZM76.0265 24.8536L67.1194 15.7462L70.7421 12.2282L79.649 21.3357L76.0265 24.8536ZM67.1194 15.7462C67.1084 15.7349 66.8748 15.5412 66.313 15.7176C65.7628 15.8903 65.5184 16.242 65.4711 16.4561L60.4773 15.2583C60.9932 12.9226 62.8392 11.4315 64.6826 10.8527C66.5144 10.2777 68.9774 10.4239 70.7421 12.2282L67.1194 15.7462ZM65.4711 16.4561L62.5986 29.4628L57.6048 28.265L60.4773 15.2583L65.4711 16.4561ZM70.1533 33.5778C68.9473 32.1574 69.1751 30.0419 70.6502 28.9654L73.7271 33.101C74.6122 32.4551 74.7489 31.1858 74.0253 30.3335L70.1533 33.5778Z" fill="black"/>
</g>
<path d="M38.4062 27.1487C38.4552 26.1283 39.2967 25.3262 40.3183 25.3262H44.2117C45.2089 25.3262 46.0391 26.0917 46.1197 27.0856L48.5658 57.2206C48.6128 57.7991 48.3947 58.3677 47.973 58.7665L44.0944 62.4337C43.3569 63.1311 42.2033 63.1315 41.4652 62.4348L37.5597 58.748C37.1534 58.3644 36.9349 57.8224 36.9617 57.2643L38.4062 27.1487Z" stroke="black" stroke-width="2.55235"/>
<path d="M36.2272 15.2081C36.0212 14.0363 36.9228 12.9624 38.1126 12.9624H46.161C47.3508 12.9624 48.2523 14.0363 48.0464 15.2081L46.5599 23.6638C46.399 24.5791 45.6039 25.2467 44.6746 25.2467H39.599C38.6696 25.2467 37.8745 24.5791 37.7136 23.6638L36.2272 15.2081Z" stroke="black" stroke-width="2.55235"/>
<path d="M31.6275 21.0684C31.0856 22.2575 29.5137 22.5377 28.5533 21.6166L23.5897 16.8559C22.4579 15.7703 23.0089 13.8906 24.5389 13.6178L32.3028 12.2335C33.8328 11.9607 35.0664 13.5222 34.4278 14.9234L31.6275 21.0684Z" stroke="black" stroke-width="2.55235"/>
<path d="M53.1515 21.4282C53.7081 22.5576 55.208 22.825 56.1594 21.9645L61.5798 17.0619C62.7627 15.992 62.2285 14.062 60.6728 13.7846L52.0808 12.2526C50.525 11.9752 49.2878 13.5894 49.9799 14.9936L53.1515 21.4282Z" stroke="black" stroke-width="2.55235"/>
<mask id="mask2_1194_4014" style="mask-type:luminance" maskUnits="userSpaceOnUse" x="62" y="72" width="22" height="37">
<path fill-rule="evenodd" clip-rule="evenodd" d="M66.9185 85.4924C67.1597 85.2084 67.1141 84.7853 66.8191 84.57L64.051 82.5498C62.4825 81.4052 62.1624 79.4333 63.3481 78.2209L68.1954 73.2644C69.9711 71.4488 73.5888 72.5845 74.1519 75.1344L75.9035 83.0655C75.9112 83.1002 75.9219 83.134 75.9347 83.167C75.9508 83.2084 75.9661 83.2502 75.9807 83.2926L83.5023 105.24C84.6347 108.544 79.8672 110.206 77.5936 107.3L65.051 91.2657C64.1816 90.1544 64.1489 88.7543 64.9696 87.7878L66.9185 85.4924Z" fill="white"/>
</mask>
<g mask="url(#mask2_1194_4014)">
<path d="M68.3576 82.5023L65.5895 80.4822L62.5126 84.6178L65.2807 86.638L68.3576 82.5023ZM65.5895 80.4822C65.2827 80.2583 65.2036 80.0331 65.1903 79.9511C65.1839 79.9117 65.1914 79.908 65.1844 79.9313C65.1812 79.9422 65.176 79.9544 65.1693 79.9657C65.1625 79.9772 65.1577 79.9819 65.1595 79.9801L61.5369 76.4621C58.9438 79.1135 60.0885 82.8487 62.5126 84.6178L65.5895 80.4822ZM65.1595 79.9801L70.0068 75.0236L66.3842 71.5056L61.5369 76.4621L65.1595 79.9801ZM70.0068 75.0236C70.0178 75.0123 70.2515 74.8186 70.8133 74.995C71.3635 75.1677 71.6078 75.5194 71.6551 75.7335L76.6489 74.5357C76.1331 72.1999 74.287 70.7088 72.4436 70.1301C70.6119 69.555 68.1488 69.7013 66.3842 71.5056L70.0068 75.0236ZM71.6551 75.7335L73.4067 83.6646L78.4005 82.4668L76.6489 74.5357L71.6551 75.7335ZM73.5492 84.1336C73.553 84.1433 73.5566 84.1531 73.56 84.163L78.4015 82.4225C78.3759 82.3478 78.3488 82.2739 78.3204 82.2008L73.5492 84.1336ZM73.56 84.163L81.0817 106.111L85.9232 104.37L78.4015 82.4225L73.56 84.163ZM81.0817 106.111C81.1558 106.327 81.0799 106.286 81.1532 106.156C81.198 106.076 81.205 106.134 81.0283 106.195C80.6594 106.324 80.0568 106.262 79.6221 105.706L75.5654 108.894C77.4042 111.245 80.3222 111.805 82.6224 111.003C83.7802 110.599 84.9088 109.804 85.6001 108.574C86.3198 107.294 86.4152 105.806 85.9232 104.37L81.0817 106.111ZM79.6221 105.706L67.0794 89.6719L63.0227 92.86L75.5654 108.894L79.6221 105.706ZM67.0794 89.6719C66.9446 89.4995 66.9326 89.3811 66.9321 89.3585C66.9318 89.3467 66.9337 89.3524 66.9276 89.3697C66.9212 89.3883 66.9115 89.4033 66.9057 89.4101L63.0336 86.1658C61.2781 88.2334 61.5596 90.9896 63.0227 92.86L67.0794 89.6719ZM66.9057 89.4101L68.8546 87.1148L64.9825 83.8705L63.0336 86.1658L66.9057 89.4101ZM73.4067 83.6646C73.4463 83.8438 73.4977 84.001 73.5492 84.1336L78.3204 82.2008C78.3463 82.2674 78.3763 82.357 78.4005 82.4668L73.4067 83.6646ZM65.2807 86.638C64.3957 85.9921 64.2589 84.7228 64.9825 83.8705L68.8546 87.1148C70.0607 85.6943 69.8327 83.5788 68.3576 82.5023L65.2807 86.638Z" fill="black"/>
</g>
<mask id="mask3_1194_4014" style="mask-type:luminance" maskUnits="userSpaceOnUse" x="93" y="72" width="22" height="37">
<path fill-rule="evenodd" clip-rule="evenodd" d="M110.595 85.4918C110.354 85.2077 110.399 84.7846 110.695 84.5693L113.463 82.5488C115.031 81.4042 115.352 79.4323 114.166 78.2199L109.319 73.2634C107.543 71.4478 103.925 72.5836 103.362 75.1334L101.611 83.0665C101.603 83.1011 101.592 83.1349 101.579 83.1678C101.563 83.2089 101.548 83.2504 101.534 83.2924L94.0121 105.24C92.8797 108.544 97.6472 110.206 99.9208 107.3L112.463 91.2656C113.332 90.1543 113.365 88.7542 112.544 87.7876L110.595 85.4918Z" fill="white"/>
</mask>
<g mask="url(#mask3_1194_4014)">
<path d="M109.157 82.5017L111.926 80.4812L115.003 84.6169L112.234 86.6373L109.157 82.5017ZM111.926 80.4812C112.232 80.2573 112.311 80.0321 112.325 79.9501C112.331 79.9107 112.324 79.907 112.331 79.9303C112.334 79.9412 112.339 79.9534 112.346 79.9647C112.353 79.9762 112.357 79.9809 112.356 79.9791L115.978 76.4611C118.571 79.1126 117.427 82.8478 115.003 84.6169L111.926 80.4812ZM112.356 79.9791L107.508 75.0226L111.131 71.5046L115.978 76.4611L112.356 79.9791ZM107.508 75.0226C107.497 75.0113 107.264 74.8176 106.702 74.994C106.152 75.1667 105.907 75.5184 105.86 75.7325L100.866 74.5347C101.382 72.199 103.228 70.7079 105.072 70.1291C106.903 69.5541 109.366 69.7003 111.131 71.5046L107.508 75.0226ZM105.86 75.7325L104.108 83.6656L99.1138 82.4678L100.866 74.5347L105.86 75.7325ZM103.966 84.1337C103.962 84.1433 103.958 84.153 103.955 84.1629L99.1133 82.4224C99.1387 82.3482 99.1655 82.2749 99.1937 82.2024L103.966 84.1337ZM103.955 84.1629L96.433 106.111L91.5916 104.37L99.1133 82.4224L103.955 84.1629ZM96.433 106.111C96.3589 106.327 96.4348 106.286 96.3615 106.156C96.3167 106.076 96.3098 106.134 96.4865 106.195C96.8553 106.324 97.4579 106.262 97.8926 105.706L101.949 108.894C100.111 111.244 97.1926 111.804 94.8924 111.003C93.7346 110.599 92.606 109.804 91.9147 108.574C91.1949 107.294 91.0995 105.806 91.5916 104.37L96.433 106.111ZM97.8926 105.706L110.436 89.6718L114.492 92.8599L101.949 108.894L97.8926 105.706ZM110.436 89.6718C110.571 89.4994 110.583 89.381 110.583 89.3583C110.583 89.3466 110.581 89.3522 110.588 89.3696C110.594 89.3882 110.604 89.4032 110.609 89.41L114.481 86.1657C116.237 88.2333 115.956 90.9895 114.492 92.8599L110.436 89.6718ZM110.609 89.41L108.66 87.1141L112.532 83.8699L114.481 86.1657L110.609 89.41ZM104.108 83.6656C104.069 83.8444 104.017 84.0014 103.966 84.1337L99.1937 82.2024C99.1679 82.2688 99.138 82.3582 99.1138 82.4678L104.108 83.6656ZM112.234 86.6373C113.119 85.9914 113.256 84.7221 112.532 83.8699L108.66 87.1141C107.454 85.6937 107.682 83.5782 109.157 82.5017L112.234 86.6373Z" fill="black"/>
</g>
<path d="M85.8518 82.6048C85.9007 81.5844 86.7423 80.7822 87.7638 80.7822H89.0883C90.0854 80.7822 90.9156 81.5477 90.9962 82.5416L92.712 103.679C92.7589 104.257 92.5409 104.826 92.1191 105.225L90.1083 107.126C89.3708 107.823 88.2172 107.824 87.4791 107.127L85.4372 105.199C85.0308 104.816 84.8124 104.274 84.8391 103.716L85.8518 82.6048Z" stroke="black" stroke-width="2.55235"/>
<path d="M84.444 73.8805C84.238 72.7086 85.1396 71.6348 86.3294 71.6348H90.3073C91.4971 71.6348 92.3987 72.7087 92.1927 73.8805L91.3847 78.477C91.2238 79.3923 90.4287 80.0598 89.4993 80.0598H87.1374C86.208 80.0598 85.4129 79.3923 85.252 78.477L84.444 73.8805Z" stroke="black" stroke-width="2.55235"/>
<path d="M80.72 76.1052C80.1781 77.2942 78.6062 77.5745 77.6458 76.6533L75.995 75.0701C74.8632 73.9845 75.4142 72.1048 76.9442 71.832L79.5262 71.3716C81.0562 71.0988 82.2899 72.6603 81.6513 74.0615L80.72 76.1052Z" stroke="black" stroke-width="2.55235"/>
<path d="M96.2862 76.4398C96.8429 77.5691 98.3428 77.8365 99.2941 76.9761L101.234 75.221C102.417 74.1511 101.883 72.2211 100.327 71.9437L97.2517 71.3952C95.6959 71.1178 94.4587 72.732 95.1509 74.1363L96.2862 76.4398Z" stroke="black" stroke-width="2.55235"/>
</svg>
