<svg width="121" height="121" viewBox="0 0 121 121" fill="none" xmlns="http://www.w3.org/2000/svg">
<g clip-path="url(#clip0_1194_3957)">
<mask id="mask0_1194_3957" style="mask-type:luminance" maskUnits="userSpaceOnUse" x="16" y="32" width="93" height="62">
<path fill-rule="evenodd" clip-rule="evenodd" d="M108.149 32.933C107.162 32.6852 106.129 32.5537 105.065 32.5537H48.5649C44.513 32.5537 40.7073 34.4981 38.3331 37.7814L18.6972 64.9354C13.4538 72.1862 17.2627 81.9456 25.1039 84.3887L25.1618 84.4066C25.187 84.6769 25.2233 84.9442 25.2704 85.208C25.6204 87.1709 26.5653 88.9432 27.9239 90.3544C29.8996 92.4065 32.7504 93.695 35.9202 93.695C39.0861 93.695 41.9339 92.4097 43.9093 90.3619C45.2578 88.964 46.1998 87.2108 46.5591 85.2686C46.5779 85.1667 46.5952 85.0642 46.6108 84.9612H46.6238H49.9018H49.9148C49.9304 85.0642 49.9477 85.1667 49.9665 85.2686C50.3258 87.2111 51.268 88.9646 52.6169 90.3626C54.5923 92.41 57.4398 93.695 60.6053 93.695C63.7709 93.695 66.6184 92.41 68.5938 90.3626C69.9426 88.9645 70.8849 87.211 71.2441 85.2686C71.263 85.1667 71.2803 85.0642 71.2959 84.9612H71.3088H83.8451H83.858C83.8737 85.0642 83.8909 85.1666 83.9098 85.2686C84.269 87.2112 85.2115 88.9648 86.5604 90.3629C88.5358 92.4101 91.3832 93.695 94.5486 93.695C97.7132 93.695 100.56 92.4108 102.535 90.3644C103.885 88.9661 104.828 87.2118 105.187 85.2685C105.206 85.1662 105.224 85.0633 105.239 84.96L105.252 84.9598C106.25 84.9453 107.22 84.8151 108.149 84.5819V81.9566C107.219 82.2543 106.23 82.4209 105.205 82.4349L105.135 82.4358H102.671H86.4258H86.0292H83.858H83.3135H71.8404H71.2959H69.1247H68.7282H52.4825H52.086H49.9148H49.3703H47.1553H46.6108H44.4396H44.0431H28.929C28.6139 82.4358 28.3053 82.4224 28.0033 82.3965L26.9184 82.3034L25.9012 81.9919C19.5939 80.0607 16.5519 72.2118 20.7436 66.4152L40.3794 39.2612C42.2788 36.6346 45.3235 35.079 48.5649 35.079H105.065C106.14 35.079 107.176 35.2471 108.149 35.5584V32.933ZM35.9202 91.1696C33.2876 91.1696 31.013 90.0551 29.5185 88.3566C29.2762 88.0812 29.0542 87.7903 28.8548 87.4864C28.3402 86.7026 27.9741 85.8318 27.7873 84.9126C28.1615 84.9448 28.5422 84.9612 28.929 84.9612H30.4107H41.4299H44.0431C43.8534 85.8625 43.4911 86.7165 42.9856 87.4865C42.7645 87.8231 42.5162 88.1436 42.2429 88.445C40.7479 90.0936 38.5068 91.1696 35.9202 91.1696ZM102.671 84.9612H100.058H89.0389H86.4258C86.6155 85.8625 86.9777 86.7165 87.4833 87.4865C87.7042 87.823 87.9525 88.1434 88.2256 88.4448C89.7207 90.0935 91.9618 91.1696 94.5486 91.1696C97.1341 91.1696 99.3745 90.0945 100.87 88.447C101.143 88.1451 101.392 87.8239 101.614 87.4865C102.119 86.7165 102.482 85.8625 102.671 84.9612ZM68.7282 84.9612H66.115H55.0957H52.4825C52.6722 85.8625 53.0345 86.7165 53.5401 87.4865C53.761 87.8231 54.0092 88.1436 54.2825 88.4449C55.7775 90.0936 58.0187 91.1696 60.6053 91.1696C63.192 91.1696 65.4331 90.0935 66.9282 88.4449C67.2014 88.1435 67.4497 87.823 67.6706 87.4865C68.1762 86.7165 68.5385 85.8625 68.7282 84.9612Z" fill="white"/>
</mask>
<g mask="url(#mask0_1194_3957)">
<path d="M108.148 32.9325H110.673V30.9626L108.763 30.4831L108.148 32.9325ZM25.1034 84.3882L24.3522 86.7993L24.3582 86.8012L25.1034 84.3882ZM25.1614 84.4062L27.6759 84.1725L27.5197 82.4915L25.9066 81.9932L25.1614 84.4062ZM46.6104 84.9607V82.4353H44.4392L44.1135 84.582L46.6104 84.9607ZM49.9143 84.9607L52.4112 84.582L52.0855 82.4353H49.9143V84.9607ZM71.2954 84.9607V82.4353H69.1242L68.7986 84.582L71.2954 84.9607ZM83.8576 84.9607L86.3544 84.5821L86.0288 82.4353H83.8576V84.9607ZM105.239 84.9595L105.203 82.4344L103.063 82.4647L102.742 84.5811L105.239 84.9595ZM105.252 84.9593L105.288 87.4845H105.289L105.252 84.9593ZM108.148 84.5815L108.763 87.0308L110.673 86.5513V84.5815H108.148ZM108.148 81.9561H110.673V78.4957L107.378 79.551L108.148 81.9561ZM105.135 82.4353V84.9607H105.152L105.169 84.9605L105.135 82.4353ZM26.9179 82.3029L26.1785 84.7176L26.4349 84.7961L26.7019 84.819L26.9179 82.3029ZM108.148 35.5579L107.378 37.963L110.673 39.0182V35.5579H108.148ZM27.7868 84.9121L28.0028 82.396L24.64 82.1074L25.3121 85.4151L27.7868 84.9121ZM44.0426 84.9607L46.5138 85.4809L47.1548 82.4353H44.0426V84.9607ZM102.671 84.9607L105.142 85.4809L105.783 82.4353H102.671V84.9607ZM86.4253 84.9607V82.4353H83.3131L83.954 85.4809L86.4253 84.9607ZM68.7278 84.9607L71.199 85.4809L71.8399 82.4353H68.7278V84.9607ZM52.482 84.9607V82.4353H49.3699L50.0108 85.4809L52.482 84.9607ZM108.763 30.4831C107.577 30.1853 106.337 30.0278 105.064 30.0278V35.0786C105.919 35.0786 106.746 35.1842 107.533 35.3818L108.763 30.4831ZM105.064 30.0278H48.5645V35.0786H105.064V30.0278ZM48.5645 30.0278C43.7022 30.0278 39.1353 32.3612 36.2862 36.3012L40.379 39.2608C42.2784 36.6341 45.323 35.0786 48.5645 35.0786V30.0278ZM36.2862 36.3012L16.6503 63.4551L20.7431 66.4147L40.379 39.2608L36.2862 36.3012ZM16.6503 63.4551C10.3449 72.1748 14.9465 83.8687 24.3522 86.7993L25.8547 81.9772C19.5781 80.0216 16.5619 72.1967 20.7431 66.4147L16.6503 63.4551ZM24.3582 86.8012L24.4162 86.8191L25.9066 81.9932L25.8487 81.9753L24.3582 86.8012ZM22.6469 84.64C22.6786 84.9807 22.7243 85.3179 22.7838 85.6509L27.7561 84.7641C27.7213 84.5695 27.6945 84.3722 27.6759 84.1725L22.6469 84.64ZM22.7838 85.6509C23.2266 88.134 24.4187 90.3548 26.1042 92.1055L29.7427 88.6025C28.7109 87.5308 28.0133 86.2067 27.7561 84.7641L22.7838 85.6509ZM26.1042 92.1055C28.553 94.649 32.0594 96.2199 35.9197 96.2199V91.1692C33.4406 91.1692 31.2454 90.1632 29.7427 88.6025L26.1042 92.1055ZM35.9197 96.2199C39.7755 96.2199 43.278 94.6527 45.7264 92.1148L42.0914 88.6081C40.5888 90.1656 38.3958 91.1692 35.9197 91.1692V96.2199ZM45.7264 92.1148C47.3991 90.3807 48.5874 88.1842 49.0418 85.7274L44.0753 84.8089C43.8113 86.2365 43.1155 87.5464 42.0914 88.6081L45.7264 92.1148ZM49.0418 85.7274C49.0656 85.5987 49.0874 85.4694 49.1071 85.3395L44.1135 84.582C44.102 84.6581 44.0892 84.7337 44.0753 84.8089L49.0418 85.7274ZM46.6104 87.486H46.6233V82.4353H46.6104V87.486ZM46.6233 87.486H49.9014V82.4353H46.6233V87.486ZM49.9014 87.486H49.9143V82.4353H49.9014V87.486ZM47.4175 85.3395C47.4372 85.4694 47.459 85.5987 47.4828 85.7274L52.4492 84.8089C52.4354 84.7337 52.4226 84.6581 52.4112 84.582L47.4175 85.3395ZM47.4828 85.7274C47.9373 88.1846 49.1259 90.3814 50.7991 92.1156L54.4338 88.6086C53.4093 87.5468 52.7133 86.2367 52.4492 84.8089L47.4828 85.7274ZM50.7991 92.1156C53.2474 94.6531 56.7496 96.2199 60.6049 96.2199V91.1692C58.129 91.1692 55.9363 90.1659 54.4338 88.6086L50.7991 92.1156ZM60.6049 96.2199C64.4602 96.2199 67.9623 94.6531 70.4107 92.1156L66.7759 88.6086C65.2735 90.1658 63.0807 91.1692 60.6049 91.1692V96.2199ZM70.4107 92.1156C72.0839 90.3813 73.2725 88.1846 73.7269 85.7274L68.7604 84.8089C68.4963 86.2367 67.8005 87.5468 66.7759 88.6086L70.4107 92.1156ZM73.7269 85.7274C73.7508 85.5987 73.7725 85.4694 73.7922 85.3395L68.7986 84.582C68.7871 84.6581 68.7744 84.7337 68.7604 84.8089L73.7269 85.7274ZM71.2954 87.486H71.3084V82.4353H71.2954V87.486ZM71.3084 87.486H83.8446V82.4353H71.3084V87.486ZM83.8446 87.486H83.8576V82.4353H83.8446V87.486ZM81.3607 85.3394C81.3804 85.4694 81.4022 85.5987 81.426 85.7274L86.3926 84.8089C86.3786 84.7337 86.3659 84.6581 86.3544 84.5821L81.3607 85.3394ZM81.426 85.7274C81.8805 88.1848 83.0693 90.3817 84.7427 92.1159L88.3773 88.6088C87.3527 87.547 86.6566 86.2368 86.3926 84.8089L81.426 85.7274ZM84.7427 92.1159C87.191 94.6532 90.693 96.2199 94.5481 96.2199V91.1692C92.0725 91.1692 89.8797 90.1659 88.3773 88.6088L84.7427 92.1159ZM94.5481 96.2199C98.4023 96.2199 101.903 94.6541 104.352 92.1178L100.718 88.61C99.2154 90.1665 97.0232 91.1692 94.5481 91.1692V96.2199ZM104.352 92.1178C106.026 90.3833 107.216 88.1856 107.67 85.7273L102.704 84.8087C102.44 86.2373 101.743 87.548 100.718 88.61L104.352 92.1178ZM107.67 85.7273C107.694 85.5981 107.716 85.4683 107.736 85.338L102.742 84.5811C102.73 84.6575 102.718 84.7334 102.704 84.8087L107.67 85.7273ZM105.275 87.4847L105.288 87.4845L105.216 82.4342L105.203 82.4344L105.275 87.4847ZM105.289 87.4845C106.483 87.467 107.647 87.311 108.763 87.0308L107.533 82.1321C106.792 82.3181 106.016 82.4226 105.215 82.4342L105.289 87.4845ZM110.673 84.5815V81.9561H105.623V84.5815H110.673ZM105.239 84.9595C106.517 84.9422 107.753 84.7342 108.918 84.3611L107.378 79.551C106.683 79.7735 105.943 79.8988 105.17 79.9093L105.239 84.9595ZM105.169 84.9605L105.239 84.9595L105.17 79.9093L105.101 79.9102L105.169 84.9605ZM102.671 84.9607H105.135V79.91H102.671V84.9607ZM86.4253 84.9607H102.671V79.91H86.4253V84.9607ZM86.0288 84.9607H86.4253V79.91H86.0288V84.9607ZM83.8576 84.9607H86.0288V79.91H83.8576V84.9607ZM83.3131 84.9607H83.8576V79.91H83.3131V84.9607ZM71.8399 84.9607H83.3131V79.91H71.8399V84.9607ZM71.2954 84.9607H71.8399V79.91H71.2954V84.9607ZM69.1242 84.9607H71.2954V79.91H69.1242V84.9607ZM68.7278 84.9607H69.1242V79.91H68.7278V84.9607ZM52.482 84.9607H68.7278V79.91H52.482V84.9607ZM52.0855 84.9607H52.482V79.91H52.0855V84.9607ZM49.9143 84.9607H52.0855V79.91H49.9143V84.9607ZM49.3699 84.9607H49.9143V79.91H49.3699V84.9607ZM47.1548 84.9607H49.3699V79.91H47.1548V84.9607ZM46.6104 84.9607H47.1548V79.91H46.6104V84.9607ZM44.4392 84.9607H46.6104V79.91H44.4392V84.9607ZM44.0426 84.9607H44.4392V79.91H44.0426V84.9607ZM28.9285 84.9607H44.0426V79.91H28.9285V84.9607ZM27.7868 84.9121C28.161 84.9443 28.5418 84.9607 28.9285 84.9607V79.91C28.6851 79.91 28.4485 79.8996 28.2188 79.8799L27.7868 84.9121ZM26.7019 84.819L27.7868 84.9121L28.2188 79.8799L27.1338 79.7868L26.7019 84.819ZM25.1614 84.4062L26.1785 84.7176L27.6573 79.8882L26.6402 79.5768L25.1614 84.4062ZM18.6967 64.935C13.4469 72.1947 17.2704 81.99 25.1614 84.4062L26.6402 79.5768C21.9165 78.1304 19.6559 72.2278 22.7894 67.8945L18.6967 64.935ZM38.3326 37.781L18.6967 64.935L22.7894 67.8945L42.4254 40.7406L38.3326 37.781ZM48.5645 32.5532C44.5126 32.5532 40.7069 34.4977 38.3326 37.781L42.4254 40.7406C43.85 38.7706 46.1334 37.604 48.5645 37.604V32.5532ZM105.064 32.5532H48.5645V37.604H105.064V32.5532ZM108.918 33.1528C107.7 32.7628 106.404 32.5532 105.064 32.5532V37.604C105.875 37.604 106.652 37.7304 107.378 37.963L108.918 33.1528ZM110.673 35.5579V32.9325H105.623V35.5579H110.673ZM27.6221 90.0243C29.5949 92.2664 32.5596 93.6945 35.9197 93.6945V88.6438C34.0147 88.6438 32.4302 87.8428 31.414 86.688L27.6221 90.0243ZM26.7433 88.8718C27.0085 89.2758 27.3023 89.6609 27.6221 90.0243L31.414 86.688C31.249 86.5005 31.0992 86.3039 30.9654 86.0999L26.7433 88.8718ZM25.3121 85.4151C25.5653 86.6611 26.0593 87.8302 26.7433 88.8718L30.9654 86.0999C30.6202 85.5742 30.382 85.0014 30.2617 84.4092L25.3121 85.4151ZM28.9285 82.4353C28.6134 82.4353 28.3048 82.422 28.0028 82.396L27.5709 87.4283C28.0173 87.4665 28.47 87.486 28.9285 87.486V82.4353ZM30.4102 82.4353H28.9285V87.486H30.4102V82.4353ZM41.4294 82.4353H30.4102V87.486H41.4294V82.4353ZM44.0426 82.4353H41.4294V87.486H44.0426V82.4353ZM45.0961 88.8721C45.7681 87.8487 46.2567 86.7025 46.5138 85.4809L41.5714 84.4406C41.4491 85.0216 41.2132 85.5835 40.8741 86.1001L45.0961 88.8721ZM44.1132 90.1409C44.4735 89.7435 44.8024 89.3194 45.0961 88.8721L40.8741 86.1001C40.7258 86.3258 40.5579 86.5427 40.3717 86.7481L44.1132 90.1409ZM35.9197 93.6945C39.221 93.6945 42.1409 92.3159 44.1132 90.1409L40.3717 86.7481C39.354 87.8704 37.7917 88.6438 35.9197 88.6438V93.6945ZM100.058 87.486H102.671V82.4353H100.058V87.486ZM89.0385 87.486H100.058V82.4353H89.0385V87.486ZM86.4253 87.486H89.0385V82.4353H86.4253V87.486ZM89.5938 86.1001C89.2547 85.5835 89.0188 85.0216 88.8965 84.4406L83.954 85.4809C84.2112 86.7025 84.6999 87.8487 85.3718 88.8721L89.5938 86.1001ZM90.096 86.7479C89.9098 86.5426 89.7421 86.3258 89.5938 86.1001L85.3718 88.8721C85.6654 89.3193 85.9941 89.7433 86.3544 90.1406L90.096 86.7479ZM94.5481 88.6438C92.6761 88.6438 91.1137 87.8703 90.096 86.7479L86.3544 90.1406C88.3267 92.3157 91.2467 93.6945 94.5481 93.6945V88.6438ZM98.9988 86.7495C97.9811 87.871 96.4192 88.6438 94.5481 88.6438V93.6945C97.848 93.6945 100.767 92.317 102.739 90.1436L98.9988 86.7495ZM99.5025 86.1001C99.3538 86.3264 99.1856 86.5437 98.9988 86.7495L102.739 90.1436C103.1 89.7455 103.43 89.3204 103.724 88.8721L99.5025 86.1001ZM100.2 84.4406C100.078 85.0216 99.8416 85.5835 99.5025 86.1001L103.724 88.8721C104.396 87.8487 104.885 86.7025 105.142 85.4809L100.2 84.4406ZM66.1145 87.486H68.7278V82.4353H66.1145V87.486ZM55.0953 87.486H66.1145V82.4353H55.0953V87.486ZM52.482 87.486H55.0953V82.4353H52.482V87.486ZM55.6505 86.1001C55.3114 85.5835 55.0756 85.0216 54.9533 84.4406L50.0108 85.4809C50.268 86.7025 50.7566 87.8487 51.4286 88.8721L55.6505 86.1001ZM56.1529 86.748C55.9667 86.5427 55.7989 86.3258 55.6505 86.1001L51.4286 88.8721C51.7222 89.3193 52.051 89.7435 52.4113 90.1408L56.1529 86.748ZM60.6049 88.6438C58.7329 88.6438 57.1706 87.8704 56.1529 86.748L52.4113 90.1408C54.3836 92.3158 57.3035 93.6945 60.6049 93.6945V88.6438ZM65.0569 86.748C64.0392 87.8704 62.4769 88.6438 60.6049 88.6438V93.6945C63.9063 93.6945 66.8262 92.3158 68.7985 90.1407L65.0569 86.748ZM65.5592 86.1001C65.4109 86.3258 65.2431 86.5426 65.0569 86.748L68.7985 90.1407C69.1588 89.7434 69.4875 89.3193 69.7812 88.8721L65.5592 86.1001ZM66.2565 84.4406C66.1342 85.0216 65.8983 85.5835 65.5592 86.1001L69.7812 88.8721C70.4531 87.8487 70.9418 86.7025 71.199 85.4809L66.2565 84.4406Z" fill="black"/>
</g>
<path fill-rule="evenodd" clip-rule="evenodd" d="M108.484 45.9265C108.033 45.8241 107.563 45.77 107.081 45.77H95.9164C92.4296 45.77 89.603 48.5966 89.603 52.0833V63.2476C89.603 66.7345 92.4296 69.561 95.9164 69.561H107.081C107.563 69.561 108.033 69.5069 108.484 69.4044V66.7671C108.05 66.9404 107.577 67.0356 107.081 67.0356H95.9164C93.8244 67.0356 92.1284 65.3398 92.1284 63.2476V52.0833C92.1284 49.9913 93.8244 48.2953 95.9164 48.2953H107.081C107.577 48.2953 108.05 48.3906 108.484 48.5639V45.9265Z" fill="black"/>
<mask id="mask1_1194_3957" style="mask-type:luminance" maskUnits="userSpaceOnUse" x="89" y="45" width="20" height="25">
<path fill-rule="evenodd" clip-rule="evenodd" d="M108.484 45.9265C108.033 45.8241 107.563 45.77 107.081 45.77H95.9164C92.4296 45.77 89.603 48.5966 89.603 52.0833V63.2476C89.603 66.7345 92.4296 69.561 95.9164 69.561H107.081C107.563 69.561 108.033 69.5069 108.484 69.4044V66.7671C108.05 66.9404 107.577 67.0356 107.081 67.0356H95.9164C93.8244 67.0356 92.1284 65.3398 92.1284 63.2476V52.0833C92.1284 49.9913 93.8244 48.2953 95.9164 48.2953H107.081C107.577 48.2953 108.05 48.3906 108.484 48.5639V45.9265Z" fill="white"/>
</mask>
<g mask="url(#mask1_1194_3957)">
<path d="M108.484 45.9262H109.474V45.1363L108.704 44.9613L108.484 45.9262ZM108.484 69.4041L108.704 70.369L109.474 70.1942V69.4041H108.484ZM108.484 66.7668H109.474V65.3065L108.118 65.8479L108.484 66.7668ZM108.484 48.5635L108.118 49.4825L109.474 50.0238V48.5635H108.484ZM108.704 44.9613C108.181 44.8427 107.638 44.7803 107.081 44.7803V46.7591C107.489 46.7591 107.885 46.8048 108.265 46.8911L108.704 44.9613ZM107.081 44.7803H95.9166V46.7591H107.081V44.7803ZM95.9166 44.7803C91.8834 44.7803 88.6138 48.0498 88.6138 52.083H90.5926C90.5926 49.1427 92.9762 46.7591 95.9166 46.7591V44.7803ZM88.6138 52.083V63.2473H90.5926V52.083H88.6138ZM88.6138 63.2473C88.6138 67.2806 91.8834 70.5502 95.9166 70.5502V68.5713C92.9762 68.5713 90.5926 66.1877 90.5926 63.2473H88.6138ZM95.9166 70.5502H107.081V68.5713H95.9166V70.5502ZM107.081 70.5502C107.637 70.5502 108.181 70.4877 108.704 70.369L108.265 68.4392C107.885 68.5255 107.489 68.5713 107.081 68.5713V70.5502ZM109.474 69.4041V66.7668H107.495V69.4041H109.474ZM107.081 68.0247C107.704 68.0247 108.302 67.9048 108.851 67.6858L108.118 65.8479C107.798 65.9753 107.449 66.0459 107.081 66.0459V68.0247ZM95.9166 68.0247H107.081V66.0459H95.9166V68.0247ZM91.1392 63.2473C91.1392 65.8858 93.2781 68.0247 95.9166 68.0247V66.0459C94.371 66.0459 93.118 64.793 93.118 63.2473H91.1392ZM91.1392 52.083V63.2473H93.118V52.083H91.1392ZM95.9166 47.3056C93.2781 47.3056 91.1392 49.4445 91.1392 52.083H93.118C93.118 50.5374 94.371 49.2844 95.9166 49.2844V47.3056ZM107.081 47.3056H95.9166V49.2844H107.081V47.3056ZM108.851 47.6447C108.302 47.4256 107.704 47.3056 107.081 47.3056V49.2844C107.449 49.2844 107.798 49.3551 108.118 49.4825L108.851 47.6447ZM109.474 48.5635V45.9262H107.495V48.5635H109.474Z" fill="black"/>
</g>
<path d="M64.4321 52.0828C64.4321 49.2935 66.6935 47.0322 69.4828 47.0322H80.6471C83.4365 47.0322 85.6978 49.2935 85.6978 52.0829V63.2471C85.6978 66.0366 83.4365 68.2978 80.6471 68.2978H69.4828C66.6935 68.2978 64.4321 66.0366 64.4321 63.2471V52.0828Z" stroke="black" stroke-width="2.52536"/>
<path d="M43.837 49.2677C44.7751 47.8705 46.3475 47.0322 48.0304 47.0322H54.1898C56.9792 47.0322 59.2406 49.2935 59.2406 52.0829V63.3813C59.2406 66.1707 56.9792 68.432 54.1898 68.432H40.4455C36.4041 68.432 33.9995 63.9215 36.2521 60.5661L43.837 49.2677ZM43.837 49.2677L42.7886 48.564" stroke="black" stroke-width="2.52536"/>
<path d="M86.8806 24.6522L84.268 19.4268C84.247 19.3848 84.2776 19.3354 84.3245 19.3354H105.387C105.434 19.3354 105.464 19.3848 105.443 19.4268L102.831 24.6522" stroke="black" stroke-width="2.52536" stroke-linecap="round"/>
<path d="M98.5013 20.1238C98.9369 19.5792 98.8487 18.7846 98.3041 18.349C97.7596 17.9134 96.965 18.0017 96.5293 18.5462L98.5013 20.1238ZM96.5293 33.4155L97.3181 34.4016L99.2901 32.8239L98.5013 31.838L96.5293 33.4155ZM96.5293 18.5462L91.2441 25.1526L93.2162 26.7302L98.5013 20.1238L96.5293 18.5462ZM91.2441 26.8091L96.5293 33.4155L98.5013 31.838L93.2162 25.2315L91.2441 26.8091ZM91.2441 25.1526C90.8568 25.6368 90.8568 26.3249 91.2441 26.8091L93.2162 25.2315C93.5666 25.6696 93.5666 26.2921 93.2162 26.7302L91.2441 25.1526Z" fill="black"/>
<path d="M12.4473 101.745H108.148" stroke="black" stroke-width="2.52536" stroke-linecap="round"/>
</g>
<defs>
<clipPath id="clip0_1194_3957">
<rect width="98.9425" height="86.08" fill="white" transform="translate(10.5 17.5)"/>
</clipPath>
</defs>
</svg>
