<svg width="69" height="69" viewBox="0 0 69 69" fill="none" xmlns="http://www.w3.org/2000/svg">
<path d="M36.8594 32.1398C35.5564 33.4428 33.4438 33.4428 32.1408 32.1398L12.7247 12.7237C11.8195 11.8185 11.8195 10.3509 12.7247 9.44565V9.44565C13.6299 8.54045 15.0975 8.54045 16.0027 9.44565L34.5001 27.9431L52.9975 9.44565C53.9027 8.54045 55.3703 8.54045 56.2755 9.44565V9.44565C57.1807 10.3509 57.1807 11.8185 56.2755 12.7237L36.8594 32.1398Z" fill="white"/>
<path d="M36.8594 58.8332C35.5564 60.1362 33.4438 60.1362 32.1408 58.8332L12.7247 39.417C11.8195 38.5118 11.8195 37.0442 12.7247 36.139V36.139C13.6299 35.2338 15.0975 35.2338 16.0027 36.139L34.5001 54.6364L52.9975 36.139C53.9027 35.2338 55.3703 35.2338 56.2755 36.139V36.139C57.1807 37.0442 57.1807 38.5118 56.2755 39.417L36.8594 58.8332Z" fill="white"/>
</svg>
