<svg width="580" height="184" viewBox="0 0 580 184" fill="none" xmlns="http://www.w3.org/2000/svg">
<path d="M71.0596 105.438H25.2832L25.0391 77.3623H62.1484C68.8216 77.3623 74.152 76.6299 78.1396 75.165C82.1273 73.6188 85.0163 71.3809 86.8066 68.4512C88.6784 65.5215 89.6143 61.8594 89.6143 57.4648C89.6143 52.4193 88.6784 48.3503 86.8066 45.2578C84.9349 42.1654 81.9645 39.9274 77.8955 38.5439C73.9079 37.0791 68.7402 36.3467 62.3926 36.3467H41.3965V181H-1.4502V3.26562H62.3926C73.3789 3.26562 83.1852 4.28288 91.8115 6.31738C100.438 8.27051 107.762 11.2816 113.784 15.3506C119.888 19.4196 124.526 24.5465 127.7 30.7314C130.874 36.835 132.461 44.0371 132.461 52.3379C132.461 59.5807 130.915 66.376 127.822 72.7236C124.73 79.0713 119.562 84.2389 112.319 88.2266C105.158 92.1328 95.3516 94.1673 82.9004 94.3301L71.0596 105.438ZM69.3506 181H14.9072L29.5557 148.041H69.3506C75.21 148.041 79.8893 147.146 83.3887 145.355C86.9694 143.484 89.5329 141.042 91.0791 138.031C92.7067 134.939 93.5205 131.521 93.5205 127.777C93.5205 123.22 92.7474 119.273 91.2012 115.937C89.7363 112.6 87.3763 110.036 84.1211 108.246C80.8659 106.374 76.512 105.438 71.0596 105.438H35.0488L35.293 77.3623H78.3838L88.3936 88.5928C100.275 88.1045 109.674 89.7728 116.592 93.5977C123.59 97.4225 128.595 102.468 131.606 108.734C134.618 115.001 136.123 121.552 136.123 128.388C136.123 140.025 133.6 149.75 128.555 157.562C123.59 165.375 116.144 171.234 106.216 175.141C96.2874 179.047 83.999 181 69.3506 181ZM276.741 148.041V181H182.015V148.041H276.741ZM197.273 3.26562V181H154.427V3.26562H197.273ZM264.534 73.8223V105.683H182.015V73.8223H264.534ZM277.107 3.26562V36.3467H182.015V3.26562H277.107ZM380.372 133.759C380.372 130.992 379.965 128.51 379.151 126.312C378.338 124.034 376.832 121.918 374.635 119.965C372.438 118.012 369.264 116.059 365.113 114.105C361.044 112.071 355.673 109.955 349 107.758C341.188 105.154 333.66 102.224 326.417 98.9688C319.174 95.6322 312.704 91.7666 307.008 87.3721C301.311 82.8962 296.795 77.6878 293.458 71.7471C290.121 65.7249 288.453 58.7262 288.453 50.751C288.453 43.1012 290.162 36.2246 293.58 30.1211C296.998 23.9362 301.759 18.6872 307.862 14.374C314.047 9.97949 321.29 6.6429 329.591 4.36426C337.892 2.00423 346.965 0.824219 356.812 0.824219C369.833 0.824219 381.308 3.10286 391.236 7.66016C401.246 12.1361 409.059 18.5244 414.674 26.8252C420.37 35.0446 423.219 44.7695 423.219 56H380.616C380.616 51.5241 379.68 47.5771 377.809 44.1592C376.018 40.7412 373.292 38.0557 369.63 36.1025C365.968 34.1494 361.37 33.1729 355.836 33.1729C350.465 33.1729 345.948 33.9867 342.286 35.6143C338.624 37.2419 335.857 39.4391 333.985 42.2061C332.114 44.8916 331.178 47.862 331.178 51.1172C331.178 53.8027 331.91 56.2441 333.375 58.4414C334.921 60.5573 337.078 62.5511 339.845 64.4229C342.693 66.2946 346.111 68.085 350.099 69.7939C354.168 71.5029 358.725 73.1712 363.771 74.7988C373.211 77.8099 381.593 81.1872 388.917 84.9307C396.323 88.5928 402.548 92.7839 407.594 97.5039C412.721 102.143 416.586 107.432 419.19 113.373C421.876 119.314 423.219 126.028 423.219 133.515C423.219 141.49 421.673 148.57 418.58 154.755C415.488 160.94 411.052 166.189 405.274 170.502C399.496 174.734 392.579 177.948 384.522 180.146C376.466 182.343 367.473 183.441 357.545 183.441C348.43 183.441 339.438 182.302 330.567 180.023C321.778 177.663 313.803 174.083 306.642 169.281C299.48 164.398 293.743 158.173 289.43 150.604C285.198 142.955 283.082 133.881 283.082 123.383H326.051C326.051 128.591 326.743 132.986 328.126 136.566C329.509 140.147 331.544 143.036 334.229 145.233C336.915 147.349 340.211 148.896 344.117 149.872C348.023 150.767 352.499 151.215 357.545 151.215C362.997 151.215 367.392 150.442 370.729 148.896C374.065 147.268 376.507 145.152 378.053 142.548C379.599 139.862 380.372 136.933 380.372 133.759ZM525.873 3.26562V181H483.026V3.26562H525.873ZM579.34 3.26562V36.3467H430.78V3.26562H579.34Z" fill="#D9D9D9" fill-opacity="0.39"/>
</svg>
