<svg width="857" height="178" viewBox="0 0 857 178" fill="none" xmlns="http://www.w3.org/2000/svg">
<path d="M0.549805 0.265625H70.4961C84.168 0.265625 96.0495 2.30013 106.141 6.36914C116.232 10.4382 124.004 16.4603 129.456 24.4355C134.99 32.4108 137.757 42.2578 137.757 53.9766C137.757 64.1491 136.17 72.6533 132.996 79.4893C129.822 86.3252 125.387 91.9811 119.69 96.457C114.075 100.852 107.524 104.473 100.037 107.321L85.999 115.256H27.2832L27.0391 82.1748H70.4961C75.9486 82.1748 80.4652 81.1982 84.0459 79.2451C87.6266 77.292 90.3122 74.5251 92.1025 70.9443C93.9743 67.2822 94.9102 62.9284 94.9102 57.8828C94.9102 52.7559 93.9743 48.3613 92.1025 44.6992C90.2308 41.0371 87.4639 38.2295 83.8018 36.2764C80.221 34.3232 75.7858 33.3467 70.4961 33.3467H43.3965V178H0.549805V0.265625ZM97.8398 178L58.5332 99.3867L103.943 99.1426L143.738 176.169V178H97.8398ZM280.45 145.041V178H185.724V145.041H280.45ZM200.982 0.265625V178H158.136V0.265625H200.982ZM268.243 70.8223V102.683H185.724V70.8223H268.243ZM280.816 0.265625V33.3467H185.724V0.265625H280.816ZM359.789 136.13L396.776 0.265625H444.75L384.813 178H353.808L359.789 136.13ZM326.22 0.265625L363.207 136.13L369.433 178H338.061L278.49 0.265625H326.22ZM497.844 0.265625V178H455.119V0.265625H497.844ZM644.81 145.041V178H550.083V145.041H644.81ZM565.342 0.265625V178H522.495V0.265625H565.342ZM632.603 70.8223V102.683H550.083V70.8223H632.603ZM645.176 0.265625V33.3467H550.083V0.265625H645.176ZM697.903 161.887L733.304 0.265625H754.422L765.896 14.0596L728.177 178H704.861L697.903 161.887ZM688.504 0.265625L718.411 163.107L710.721 178H683.743L646.023 0.265625H688.504ZM785.306 162.253L814.969 0.265625H857.327L819.607 178H792.752L785.306 162.253ZM769.681 0.265625L805.936 162.863L798.611 178H775.296L736.722 13.8154L748.685 0.265625H769.681Z" fill="#D9D9D9" fill-opacity="0.39"/>
</svg>
