<svg width="959" height="184" viewBox="0 0 959 184" fill="none" xmlns="http://www.w3.org/2000/svg">
<path d="M98.1025 133.759C98.1025 130.992 97.6956 128.51 96.8818 126.312C96.068 124.034 94.5625 121.918 92.3652 119.965C90.168 118.012 86.9941 116.059 82.8438 114.105C78.7747 112.071 73.4036 109.955 66.7305 107.758C58.918 105.154 51.3903 102.224 44.1475 98.9688C36.9046 95.6322 30.4349 91.7666 24.7383 87.3721C19.0417 82.8962 14.5251 77.6878 11.1885 71.7471C7.85189 65.7249 6.18359 58.7262 6.18359 50.751C6.18359 43.1012 7.89258 36.2246 11.3105 30.1211C14.7285 23.9362 19.4893 18.6872 25.5928 14.374C31.7777 9.97949 39.0205 6.6429 47.3213 4.36426C55.6221 2.00423 64.696 0.824219 74.543 0.824219C87.5638 0.824219 99.0384 3.10286 108.967 7.66016C118.977 12.1361 126.789 18.5244 132.404 26.8252C138.101 35.0446 140.949 44.7695 140.949 56H98.3467C98.3467 51.5241 97.4108 47.5771 95.5391 44.1592C93.7487 40.7412 91.0225 38.0557 87.3604 36.1025C83.6982 34.1494 79.1003 33.1729 73.5664 33.1729C68.1953 33.1729 63.6787 33.9867 60.0166 35.6143C56.3545 37.2419 53.5876 39.4391 51.7158 42.2061C49.8441 44.8916 48.9082 47.862 48.9082 51.1172C48.9082 53.8027 49.6406 56.2441 51.1055 58.4414C52.6517 60.5573 54.8083 62.5511 57.5752 64.4229C60.4235 66.2946 63.8415 68.085 67.8291 69.7939C71.8981 71.5029 76.4554 73.1712 81.501 74.7988C90.9411 77.8099 99.3232 81.1872 106.647 84.9307C114.053 88.5928 120.279 92.7839 125.324 97.5039C130.451 102.143 134.317 107.432 136.921 113.373C139.606 119.314 140.949 126.028 140.949 133.515C140.949 141.49 139.403 148.57 136.311 154.755C133.218 160.94 128.783 166.189 123.005 170.502C117.227 174.734 110.31 177.948 102.253 180.146C94.1963 182.343 85.2038 183.441 75.2754 183.441C66.1608 183.441 57.1683 182.302 48.2979 180.023C39.5088 177.663 31.5335 174.083 24.3721 169.281C17.2106 164.398 11.4733 158.173 7.16016 150.604C2.92839 142.955 0.8125 133.881 0.8125 123.383H43.7812C43.7812 128.591 44.473 132.986 45.8564 136.566C47.2399 140.147 49.2744 143.036 51.96 145.233C54.6455 147.349 57.9414 148.896 61.8477 149.872C65.7539 150.767 70.2298 151.215 75.2754 151.215C80.7279 151.215 85.1224 150.442 88.459 148.896C91.7956 147.268 94.237 145.152 95.7832 142.548C97.3294 139.862 98.1025 136.933 98.1025 133.759ZM279.858 148.041V181H185.132V148.041H279.858ZM200.391 3.26562V181H157.544V3.26562H200.391ZM267.651 73.8223V105.683H185.132V73.8223H267.651ZM280.225 3.26562V36.3467H185.132V3.26562H280.225ZM291.937 3.26562H361.883C375.555 3.26562 387.436 5.30013 397.527 9.36914C407.618 13.4382 415.39 19.4603 420.843 27.4355C426.377 35.4108 429.144 45.2578 429.144 56.9766C429.144 67.1491 427.557 75.6533 424.383 82.4893C421.209 89.3252 416.774 94.9811 411.077 99.457C405.462 103.852 398.911 107.473 391.424 110.321L377.386 118.256H318.67L318.426 85.1748H361.883C367.335 85.1748 371.852 84.1982 375.433 82.2451C379.013 80.292 381.699 77.5251 383.489 73.9443C385.361 70.2822 386.297 65.9284 386.297 60.8828C386.297 55.7559 385.361 51.3613 383.489 47.6992C381.618 44.0371 378.851 41.2295 375.188 39.2764C371.608 37.3232 367.173 36.3467 361.883 36.3467H334.783V181H291.937V3.26562ZM389.227 181L349.92 102.387L395.33 102.143L435.125 179.169V181H389.227ZM514.342 139.13L551.329 3.26562H599.303L539.366 181H508.36L514.342 139.13ZM480.772 3.26562L517.76 139.13L523.985 181H492.613L433.043 3.26562H480.772ZM652.396 3.26562V181H609.672V3.26562H652.396ZM778.122 120.819H820.847C820.277 133.189 816.94 144.094 810.837 153.534C804.733 162.974 796.27 170.339 785.446 175.629C774.704 180.837 762.009 183.441 747.36 183.441C735.479 183.441 724.859 181.448 715.5 177.46C706.223 173.472 698.329 167.735 691.818 160.248C685.389 152.761 680.466 143.687 677.048 133.026C673.711 122.366 672.043 110.362 672.043 97.0156V87.3721C672.043 74.0257 673.793 62.0221 677.292 51.3613C680.873 40.6191 685.918 31.5046 692.429 24.0176C699.021 16.4492 706.914 10.6712 716.11 6.68359C725.306 2.69596 735.52 0.702148 746.75 0.702148C762.212 0.702148 775.274 3.46908 785.935 9.00293C796.595 14.5368 804.855 22.1458 810.715 31.8301C816.574 41.4329 820.033 52.3786 821.091 64.667H778.366C778.203 57.9938 777.064 52.4193 774.948 47.9434C772.832 43.3861 769.496 39.9681 764.938 37.6895C760.381 35.4108 754.318 34.2715 746.75 34.2715C741.46 34.2715 736.862 35.248 732.956 37.2012C729.05 39.1543 725.795 42.2467 723.19 46.4785C720.586 50.7103 718.633 56.2035 717.331 62.958C716.11 69.6312 715.5 77.6878 715.5 87.1279V97.0156C715.5 106.456 716.07 114.512 717.209 121.186C718.348 127.859 720.179 133.311 722.702 137.543C725.225 141.775 728.48 144.908 732.468 146.942C736.537 148.896 741.501 149.872 747.36 149.872C753.871 149.872 759.364 148.855 763.84 146.82C768.316 144.704 771.774 141.531 774.216 137.299C776.657 132.986 777.959 127.493 778.122 120.819ZM957.925 148.041V181H863.198V148.041H957.925ZM878.457 3.26562V181H835.61V3.26562H878.457ZM945.718 73.8223V105.683H863.198V73.8223H945.718ZM958.291 3.26562V36.3467H863.198V3.26562H958.291Z" fill="#D9D9D9" fill-opacity="0.39"/>
</svg>
